<svg id="Layer_1" data-name="Layer 1" xmlns="http://www.w3.org/2000/svg" viewBox="0 0 1362 147"><rect y="1" width="145" height="145" rx="39.44" style="fill:#fc4349"/><rect x="152" y="1" width="145" height="145" rx="39.44" style="fill:#fc4349"/><rect x="304" y="1" width="145" height="145" rx="39.44" style="fill:#fc4349"/><rect x="456" y="1" width="145" height="145" rx="39.44" style="fill:#fc4349"/><path d="M37.77,33.78h31.9a37.46,37.46,0,0,1,15.89,3.41,43,43,0,0,1,13,9.07,42.13,42.13,0,0,1,8.75,13.2,40.73,40.73,0,0,1,.06,31.46,42.35,42.35,0,0,1-8.69,13.26,43.22,43.22,0,0,1-13,9.13,38,38,0,0,1-16,3.41H37.77ZM59.33,98.46h5a26.83,26.83,0,0,0,10-1.76,21.46,21.46,0,0,0,7.42-4.84,20.74,20.74,0,0,0,4.62-7.32,26,26,0,0,0,1.6-9.29A25.52,25.52,0,0,0,86.28,66,20.75,20.75,0,0,0,74.18,53.8,26.3,26.3,0,0,0,64.28,52h-5Z" style="fill:#282b40"/><path d="M235.09,33.78v82.94H213.53V33.78Z" style="fill:#282b40"/><path d="M408,61.5q-7.47-9.14-18.48-9.13a22.49,22.49,0,0,0-9,1.76,21.72,21.72,0,0,0-7.1,4.78,22.1,22.1,0,0,0-4.67,7.21,23.55,23.55,0,0,0-1.71,9,23.9,23.9,0,0,0,1.71,9.13,22,22,0,0,0,11.82,12.1,22,22,0,0,0,8.81,1.76q10.34,0,18.58-8.8v25.52l-2.19.77a64.49,64.49,0,0,1-9.25,2.58,44.68,44.68,0,0,1-8.47.83,43.33,43.33,0,0,1-30.3-12.38,45.14,45.14,0,0,1-9.62-14A42.58,42.58,0,0,1,344.58,75a42.49,42.49,0,0,1,3.57-17.55,43.77,43.77,0,0,1,40.1-26,45.3,45.3,0,0,1,9.73,1A59,59,0,0,1,408,35.76Z" style="fill:#282b40"/><path d="M552.84,52H527.21V65.9h24.2V84.16h-24.2v14.3h25.63v18.26H505.65V33.78h47.19Z" style="fill:#282b40"/><rect x="609" y="1" width="145" height="145" rx="39.44" style="fill:#3c989b"/><rect x="761" y="1" width="145" height="145" rx="39.44" style="fill:#3c989b"/><rect x="913" y="1" width="145" height="145" rx="39.44" style="fill:#3c989b"/><path d="M629.34,115.72l14.08-82.94h21.34L681.37,77l16.5-44.22h21.34l14.08,82.94H711.84L704.69,68l-19.58,47.74h-8.58L657.94,68l-7.15,47.74Z" style="fill:#282b40"/><path d="M848.71,101.31h-30.8L813,115.72H790l31.57-82.94h23.54l31.57,82.94h-23ZM843,84.92l-9.68-27.61-9.68,27.61Z" style="fill:#282b40"/><path d="M996.09,51v64.68H974.53V51H956.82V32.78h57V51Z" style="fill:#282b40"/><rect x="1065" y="1" width="145" height="145" rx="39.44" style="fill:#3c989b"/><path d="M1169,60.5q-7.47-9.14-18.48-9.13a22.49,22.49,0,0,0-9,1.76,21.72,21.72,0,0,0-7.1,4.78,22.1,22.1,0,0,0-4.67,7.21,23.55,23.55,0,0,0-1.71,9,23.9,23.9,0,0,0,1.71,9.13,22,22,0,0,0,11.82,12.1,22,22,0,0,0,8.81,1.76q10.33,0,18.58-8.8v25.52l-2.19.77a64.49,64.49,0,0,1-9.25,2.58,44.68,44.68,0,0,1-8.47.83,43.33,43.33,0,0,1-30.3-12.38,45.14,45.14,0,0,1-9.62-14A42.58,42.58,0,0,1,1105.58,74a42.49,42.49,0,0,1,3.57-17.55,43.77,43.77,0,0,1,40.1-26,45.3,45.3,0,0,1,9.73,1A59,59,0,0,1,1169,34.76Z" style="fill:#282b40"/><rect x="1217" y="1" width="145" height="145" rx="39.44" style="fill:#3c989b"/><path d="M1273.75,64.79h31.13v-32h21.56v82.94h-21.56V81.51h-31.13v34.21h-21.56V32.78h21.56Z" style="fill:#282b40"/></svg>