<svg id="Layer_1" data-name="Layer 1" xmlns="http://www.w3.org/2000/svg" viewBox="0 0 60 60"><circle cx="30" cy="30.5" r="25" style="fill:none;stroke:#000;stroke-miterlimit:10;stroke-width:5px"/><path d="M25.78,35.94V28.16l.88.14a5.17,5.17,0,0,0,.76.06,6.74,6.74,0,0,0,2-.3,5.48,5.48,0,0,0,1.66-.82A3.72,3.72,0,0,0,32.2,26a3.3,3.3,0,0,0,.4-1.62,2.93,2.93,0,0,0-.8-2.07,2.75,2.75,0,0,0-2.15-.88,2.49,2.49,0,0,0-2,.84,3.16,3.16,0,0,0-.74,2.19H19a8.57,8.57,0,0,1,.82-3.73,9.16,9.16,0,0,1,2.27-2.95,10.68,10.68,0,0,1,3.43-1.95,12.7,12.7,0,0,1,4.29-.7,11.38,11.38,0,0,1,4.29.78A10.47,10.47,0,0,1,37.43,18a9.43,9.43,0,0,1,2.15,3,8.82,8.82,0,0,1,.76,3.55q0,6-7.22,8.49v2.88ZM25,42.2a4.58,4.58,0,0,1,1.35-3.31,4.53,4.53,0,0,1,1.5-1,4.73,4.73,0,0,1,3.62,0A4.62,4.62,0,0,1,34,40.38,4.76,4.76,0,0,1,34,44a4.62,4.62,0,0,1-2.5,2.49,4.73,4.73,0,0,1-3.62,0,4.53,4.53,0,0,1-1.5-1A4.58,4.58,0,0,1,25,42.2Z"/></svg>