<svg id="Layer_1" data-name="Layer 1" xmlns="http://www.w3.org/2000/svg" viewBox="0 0 60 60"><path d="M30.93,51.67A21.24,21.24,0,1,1,52.17,30.43,21.26,21.26,0,0,1,30.93,51.67Zm0-35.54a14.3,14.3,0,1,0,14.3,14.3A14.32,14.32,0,0,0,30.93,16.13Z"/><polygon points="38.3 14.4 22.7 14.4 26.6 4 34.4 4 38.3 14.4"/><polygon points="24.98 13.45 13.95 24.48 9.36 14.37 14.87 8.86 24.98 13.45"/><polygon points="14.9 22.2 14.9 37.8 4.5 33.9 4.5 26.1 14.9 22.2"/><polygon points="13.95 35.52 24.98 46.55 14.87 51.14 9.36 45.63 13.95 35.52"/><polygon points="22.7 45.6 38.3 45.6 34.4 56 26.6 56 22.7 45.6"/><polygon points="36.02 46.55 47.05 35.52 51.64 45.63 46.13 51.14 36.02 46.55"/><polygon points="46.1 37.8 46.1 22.2 56.5 26.1 56.5 33.9 46.1 37.8"/><polygon points="47.05 24.48 36.02 13.45 46.13 8.86 51.64 14.37 47.05 24.48"/></svg>